<?xml version="1.0" encoding="UTF-8"?>
<svg width="24px" height="24px" viewBox="0 0 24 24" version="1.1" xmlns="http://www.w3.org/2000/svg" xmlns:xlink="http://www.w3.org/1999/xlink">
    <!-- Generator: Sketch 58 (84663) - https://sketch.com -->
    <title>icons/24/error</title>
    <desc>Created with Sketch.</desc>
    <g id="icons/24/error" stroke="none" stroke-width="1" fill="none" fill-rule="evenodd">
        <g id="round-error-24px" transform="translate(2.000000, 2.000000)" fill="#111111">
            <path d="M10,0 C4.48,0 0,4.48 0,10 C0,15.52 4.48,20 10,20 C15.52,20 20,15.52 20,10 C20,4.48 15.52,0 10,0 Z M10,11 C9.45,11 9,10.55 9,10 L9,6 C9,5.45 9.45,5 10,5 C10.55,5 11,5.45 11,6 L11,10 C11,10.55 10.55,11 10,11 Z M11,15 L9,15 L9,13 L11,13 L11,15 Z" id="Shape"></path>
        </g>
    </g>
</svg>