<?xml version="1.0" encoding="UTF-8"?>
<svg width="165px" height="38px" viewBox="0 0 165 38" version="1.1" xmlns="http://www.w3.org/2000/svg" xmlns:xlink="http://www.w3.org/1999/xlink">
    <!-- Generator: Sketch 58 (84663) - https://sketch.com -->
    <title>Fill 1</title>
    <desc>Created with Sketch.</desc>
    <g id="Vacacioonero" stroke="none" stroke-width="1" fill="none" fill-rule="evenodd">
        <g id="REQUEST-DSK" transform="translate(-150.000000, -40.000000)" fill="#FFFFFF" fill-rule="nonzero">
            <g id="Group-4">
                <path d="M288.194399,71.439761 C287.744211,71.4075883 287.580245,71.3117596 287.43317,70.7776928 C287.382728,70.5943084 287.382958,70.3692144 287.383188,70.1088453 L287.383188,70.0497854 C287.382498,61.4287652 287.382153,52.8076301 287.384107,44.1862652 C287.384107,43.7438905 287.368135,43.1597262 287.242087,42.5649908 C286.90324,40.9672715 285.82465,40.0596566 284.205329,40.009674 C283.786739,39.9964602 283.368839,39.9995625 282.965416,40.0028947 C282.793177,40.0041587 282.620593,40.0055375 282.44801,40.0055375 C281.113647,40.0063418 280.640479,40.4737652 280.639789,41.7923864 L280.639559,59.8868885 C280.639215,63.6672958 280.63887,67.4477032 280.643121,71.2284553 C280.643696,71.7348307 280.672307,72.2336224 280.728494,72.7112722 C281.009775,75.1133091 282.523271,76.7132116 284.881875,77.1007777 C285.502808,77.2029261 286.118915,77.2431419 286.730082,77.2431419 C287.889333,77.2431419 289.029166,77.0983648 290.14395,76.9565751 L290.190141,76.9506002 C290.444535,76.9180827 291.282864,76.7290681 291.38731,75.6587513 C291.505545,74.4561816 291.412474,73.4039045 291.102582,72.4422854 C290.891506,71.785158 290.395816,71.4352798 289.711917,71.4561921 C289.093626,71.4759553 288.624594,71.4705549 288.194399,71.439761 Z M170.725545,64.7462304 C170.7252,63.0552102 170.725085,61.3643049 170.726119,59.6732847 C170.726694,58.4030375 170.55457,57.187369 170.214573,56.0602903 C169.316955,53.0842004 167.226878,51.3188383 164.329037,51.0892631 C162.06902,50.9103599 159.901958,51.392261 157.891509,52.5216378 C157.381802,52.8079748 156.908748,53.1286677 156.451551,53.4693536 C155.941958,52.102933 154.769723,51.3053947 153.198316,51.2982708 C152.696652,51.2959727 152.195217,51.2966621 151.693898,51.2982708 C150.14122,51.3034414 150.011151,52.1625674 150.011036,52.9678042 L150.010806,58.1053251 C150.011036,63.918128 150.011266,69.7305862 150,75.5429295 C149.998167,76.4654818 150.497418,77.0171287 151.406067,77.0962965 C152.770419,77.2141865 154.023661,77.2225744 155.237951,77.1204261 C156.291607,77.0326405 156.822801,76.4618049 156.817171,75.4244651 C156.798671,72.0812617 156.798327,68.6812965 156.798212,65.3931315 C156.798097,63.592839 156.797867,61.7930061 156.79488,59.9927137 C156.79465,59.816683 156.814528,59.7974943 156.836015,59.776697 C158.265517,58.3962582 159.812909,57.6253773 161.566091,57.4203912 C162.905165,57.2650431 163.475541,57.6719128 163.750158,58.9783543 C163.875747,59.5755027 163.936645,60.2053982 163.9363,60.9042353 L163.935726,65.4745974 C163.935726,68.0590995 163.935726,70.6439463 163.932394,73.2283334 C163.931934,73.6230236 163.948595,74.2177589 164.097509,74.8204226 C164.210113,75.2757812 164.552178,76.6607011 166.04005,77.0972158 C166.628351,77.2697993 167.201944,77.3557464 167.759796,77.3557464 C168.866882,77.3557464 169.910771,77.0163244 170.877905,76.3394337 C171.693483,75.7689428 171.483327,75.039082 171.354981,74.7512513 C170.829532,73.5740751 170.722787,72.293027 170.724166,70.7316169 C170.725889,68.7364497 170.72566,66.7413975 170.725545,64.7462304 Z M186.504302,61.3224804 L185.36309,61.3228251 C184.96771,61.3228251 184.572446,61.3204121 184.177066,61.3181141 C183.320813,61.3127137 182.43974,61.307658 181.561196,61.3273063 C181.686095,60.2546914 181.898435,59.1489846 182.448473,58.1708195 C183.091582,57.0274247 184.045963,56.4876127 185.437087,56.4876127 C185.537052,56.4876127 185.639775,56.4903703 185.744337,56.4960006 C187.169013,56.5719511 188.101676,57.2074769 188.679636,58.4963383 C189.098456,59.4306106 189.231857,60.4202659 189.275865,61.3232847 C188.352049,61.3219059 187.428233,61.3222506 186.504302,61.3224804 Z M183.693212,51.0248028 C180.19558,51.5581802 177.468713,53.6743397 176.015082,56.9833021 C173.984065,61.6064045 173.945458,66.5533021 175.900294,71.6866865 C176.994626,74.5605131 179.210865,76.4830619 182.309211,77.2464741 C183.237968,77.4754748 184.202345,77.5883091 185.288288,77.5883091 C186.018839,77.5883091 186.804542,77.5372924 187.670907,77.4357185 C190.195315,77.140534 192.510141,76.2971496 194.567126,74.9184344 C195.126126,74.5459205 195.335593,74.0537931 195.189667,73.4560702 C194.916199,72.3339323 194.49692,71.4075883 193.9077,70.624183 C193.209897,69.6968049 192.397536,69.8757081 191.838766,70.1895068 C189.851297,71.30544 187.901861,71.8299699 185.885782,71.7914776 C183.865566,71.7532151 182.718264,70.9305131 182.049302,69.0395625 C181.777902,68.2725883 181.6445,67.4587339 181.559472,66.723128 C183.006669,66.7371461 184.468114,66.7341587 185.885092,66.7318606 C186.460409,66.7309414 187.035726,66.7296775 187.611043,66.7296775 L189.293445,66.7282986 C190.873125,66.725541 192.506924,66.7234727 194.110848,66.7397889 L194.136471,66.7397889 C194.989622,66.7397889 195.493584,66.3043084 195.63411,65.4450674 C195.882874,63.9245625 195.944347,62.3440786 195.81669,60.7472784 C195.610785,58.1700152 194.721899,55.9630827 193.175082,54.1877241 C191.055016,51.7545486 187.245653,50.4839567 183.693212,51.0248028 Z M306.882028,67.6617666 C306.882028,67.7624212 306.877202,67.8637652 306.872721,67.965339 C306.859852,68.2496078 306.845489,68.5714497 306.906158,68.914089 C306.972112,69.2870625 306.898344,69.56708 306.313261,70.0617353 C304.940176,71.2224804 303.657404,71.77091 302.276391,71.7869964 C302.262832,71.7873411 302.249504,71.7873411 302.236405,71.7873411 C300.893309,71.7873411 300.057279,70.9977311 299.939963,69.6156837 C299.85011,68.55341 300.071642,67.7092213 300.598814,67.1065577 C301.146095,66.4801092 302.044403,66.1192004 303.19676,66.0618641 C303.464368,66.0486503 303.731516,66.043135 303.999584,66.043135 C304.713703,66.043135 305.434027,66.0830061 306.1848,66.1249456 C306.415639,66.1376997 306.646708,66.1504539 306.877892,66.162174 C306.863184,66.501596 306.869389,66.8336642 306.875708,67.1572297 C306.878696,67.3255619 306.882028,67.4936642 306.882028,67.6617666 Z M313.658863,70.2985493 C313.6391,69.0457673 313.643351,67.8160807 313.647832,66.5141203 C313.649901,65.9630479 313.651739,65.4086433 313.651739,64.8497575 L313.651165,64.813908 C313.618073,63.9710981 313.62669,63.1310458 313.635653,62.2414706 C313.648752,60.9427276 313.662425,59.599862 313.535917,58.2519407 C313.166965,54.3280201 310.529263,51.6199978 306.652453,51.1850918 C302.894911,50.7638592 299.058087,51.4122541 294.92309,53.1687687 C294.321116,53.4245417 294.026161,53.855541 294.047073,54.4505061 C294.099814,55.9121809 294.525872,57.0865995 295.350757,58.0415542 C295.967554,58.7544093 296.659612,58.6752415 297.130367,58.4827798 C297.710165,58.2467701 298.340405,58.0244337 299.174023,57.7614219 C300.737387,57.2679156 302.41347,56.8135911 304.120461,56.8389846 C305.669921,56.8611607 306.498139,57.5536781 306.805618,59.0837199 C306.895701,59.533908 306.889152,60.020635 306.882028,60.5355131 C306.88019,60.6624804 306.878696,60.7893327 306.878006,60.9161851 C304.45207,60.695917 302.077265,60.5504504 299.707745,61.1347297 C296.891255,61.8292004 294.670075,63.7230236 293.613316,66.3310807 C292.590224,68.8559483 292.841861,71.6442875 294.30411,73.9807151 C295.749928,76.2914045 298.28192,77.5799212 301.189413,77.5799212 C301.881126,77.5799212 302.593981,77.5067283 303.318557,77.3574699 C304.9581,77.019197 306.483087,76.2442944 308.071958,74.9350953 C308.418964,75.4730688 308.843069,75.903034 309.339563,76.2182116 C310.461241,76.9306071 311.473877,77.4968467 312.49513,77.2130375 C313.43825,76.9506002 314.046429,76.0582673 314.721366,74.704371 C314.757561,74.6320974 314.789504,74.5577554 314.819378,74.4843327 C315.020917,73.9932394 314.9298,73.4877833 314.568891,73.0963105 C313.959448,72.4372297 313.678856,71.574082 313.658863,70.2985493 Z M206.744149,64.0995591 C206.744034,62.5402171 206.743919,60.9809901 206.745757,59.4217631 L206.744493,59.3120312 C206.744493,59.3053669 206.744149,59.2989323 206.744034,59.2926127 C207.975903,57.9677868 209.231443,57.2984797 210.686109,57.1887478 C212.049887,57.0857951 213.054594,57.7571705 213.667139,59.1847192 C214.045169,60.0659066 214.257279,61.0609623 214.354831,62.4109518 C214.518222,64.6706245 214.399988,66.3699177 213.971631,67.9214463 C213.728038,68.8040124 213.373219,69.5452485 212.886951,70.1867492 C212.027021,71.321871 211.017947,71.8385876 209.702428,71.7941203 C208.615681,71.7625222 207.643261,71.6496879 206.737139,71.4496426 C206.749434,69.9819929 206.747481,68.4958439 206.745642,67.0565751 L206.744149,64.0995591 Z M209.624639,51.5014184 C208.643372,51.7313383 207.703584,52.1200535 206.745642,52.6977833 L206.745987,52.3453773 C206.74794,50.741683 206.749894,49.1861329 206.741046,47.6305827 C206.738633,47.2172784 206.742425,46.8039741 206.746102,46.39044 C206.755409,45.3475848 206.764946,44.2693397 206.677275,43.1890263 C206.508943,41.115151 205.337857,40.0144999 203.291098,40.0058822 C202.77059,40.0033543 202.250541,40.0044048 201.730263,40.0056524 C200.483111,40.0081802 200.019479,40.4690542 200.019249,41.7063244 L200.019249,47.6933195 C200.019249,56.5624142 200.019364,65.4316238 200.007527,74.3007185 C200.006495,75.1258334 200.394406,75.6581768 201.193553,75.9284275 C203.959486,76.8637339 206.822627,77.3375918 209.706795,77.3375918 C209.755169,77.3375918 209.803772,77.3375918 209.852032,77.3375918 C214.660357,77.3103599 218.521655,74.7232151 220.181077,70.4166691 C221.965743,65.7851788 221.773971,60.8838975 219.610701,55.849674 C218.823619,54.0177833 217.483396,52.6353912 215.734465,51.8521009 C213.951293,51.0534135 212.009441,50.942073 209.624639,51.5014184 Z M230.345813,64.3746357 C230.345813,60.8773481 233.191029,58.0320173 236.688316,58.0320173 C240.185834,58.0320173 243.030935,60.8773481 243.030935,64.3746357 C243.030935,67.8720382 240.185834,70.7172541 236.688316,70.7172541 C233.191029,70.7172541 230.345813,67.8720382 230.345813,64.3746357 Z M223.703414,64.3746357 C223.703414,71.5459309 229.517021,77.3595382 236.688316,77.3595382 C243.859841,77.3595382 249.673219,71.5459309 249.673219,64.3746357 C249.673219,57.2032255 243.859841,51.3897332 236.688316,51.3897332 C229.517021,51.3897332 223.703414,57.2032255 223.703414,64.3746357 Z M258.884723,64.3746357 C258.884723,60.8773481 261.729939,58.0320173 265.227341,58.0320173 C268.724744,58.0320173 271.56996,60.8773481 271.56996,64.3746357 C271.56996,67.8720382 268.724744,70.7172541 265.227341,70.7172541 C261.729939,70.7172541 258.884723,67.8720382 258.884723,64.3746357 Z M252.242439,64.3746357 C252.242439,71.5459309 258.055931,77.3595382 265.227341,77.3595382 C272.398637,77.3595382 278.212244,71.5459309 278.212244,64.3746357 C278.212244,57.2032255 272.398637,51.3897332 265.227341,51.3897332 C258.055931,51.3897332 252.242439,57.2032255 252.242439,64.3746357 Z" id="Fill-1"></path>
            </g>
        </g>
    </g>
</svg>